<?xml version="1.0" encoding="UTF-8" standalone="no"?>
<!-- Created with Inkscape (http://www.inkscape.org/) -->

<svg
   xmlns:dc="http://purl.org/dc/elements/1.1/"
   xmlns:cc="http://creativecommons.org/ns#"
   xmlns:rdf="http://www.w3.org/1999/02/22-rdf-syntax-ns#"
   xmlns:svg="http://www.w3.org/2000/svg"
   xmlns="http://www.w3.org/2000/svg"
   xmlns:sodipodi="http://sodipodi.sourceforge.net/DTD/sodipodi-0.dtd"
   xmlns:inkscape="http://www.inkscape.org/namespaces/inkscape"
   version="1.1"
   id="svg2"
   xml:space="preserve"
   width="1866.6667"
   height="1306.6667"
   viewBox="0 0 1866.6667 1306.6667"
   sodipodi:docname="wet-floor.svg"
   inkscape:version="0.92.3 (2405546, 2018-03-11)"><metadata
     id="metadata8"><rdf:RDF><cc:Work
         rdf:about=""><dc:format>image/svg+xml</dc:format><dc:type
           rdf:resource="http://purl.org/dc/dcmitype/StillImage" /><dc:title></dc:title></cc:Work></rdf:RDF></metadata><defs
     id="defs6"><clipPath
       clipPathUnits="userSpaceOnUse"
       id="clipPath22"><path
         d="M 0,980 H 1400 V 0 H 0 Z"
         id="path20"
         inkscape:connector-curvature="0" /></clipPath><clipPath
       clipPathUnits="userSpaceOnUse"
       id="clipPath30"><path
         d="m 237,628.051 h 926 V 541.94 H 237 Z"
         id="path28"
         inkscape:connector-curvature="0" /></clipPath><clipPath
       clipPathUnits="userSpaceOnUse"
       id="clipPath136"><path
         d="m 448.328,729.647 h 84.879 v -12.265 h -84.879 z"
         id="path134"
         inkscape:connector-curvature="0" /></clipPath><clipPath
       clipPathUnits="userSpaceOnUse"
       id="clipPath276"><path
         d="M 559.371,740.155 H 752.01 v -9.653 H 559.371 Z"
         id="path274"
         inkscape:connector-curvature="0" /></clipPath><clipPath
       clipPathUnits="userSpaceOnUse"
       id="clipPath292"><path
         d="M 566.795,691.243 H 744.59 V 636.635 H 566.795 Z"
         id="path290"
         inkscape:connector-curvature="0" /></clipPath><clipPath
       clipPathUnits="userSpaceOnUse"
       id="clipPath344"><path
         d="m 937.527,799.884 h 58.15 v -5.139 h -58.15 z"
         id="path342"
         inkscape:connector-curvature="0" /></clipPath><clipPath
       clipPathUnits="userSpaceOnUse"
       id="clipPath396"><path
         d="m 358.613,810.289 h 58.151 v -5.139 h -58.151 z"
         id="path394"
         inkscape:connector-curvature="0" /></clipPath><clipPath
       clipPathUnits="userSpaceOnUse"
       id="clipPath452"><path
         d="m 827.81,631.069 h 14.234 v -2.634 H 827.81 Z"
         id="path450"
         inkscape:connector-curvature="0" /></clipPath></defs><sodipodi:namedview
     pagecolor="#ffffff"
     bordercolor="#666666"
     borderopacity="1"
     objecttolerance="10"
     gridtolerance="10"
     guidetolerance="10"
     inkscape:pageopacity="0"
     inkscape:pageshadow="2"
     inkscape:window-width="1421"
     inkscape:window-height="782"
     id="namedview4"
     showgrid="false"
     inkscape:zoom="0.36122447"
     inkscape:cx="933.33337"
     inkscape:cy="653.33337"
     inkscape:window-x="67"
     inkscape:window-y="27"
     inkscape:window-maximized="0"
     inkscape:current-layer="g18" /><g
     id="g10"
     inkscape:groupmode="layer"
     inkscape:label="AUG_WET_FLOOR_05_EEZY"
     transform="matrix(1.3333333,0,0,-1.3333333,0,1306.6667)"><path
       d="M 0,0 H 1400 V 293.42 H 0 Z"
       style="fill:#fff200;fill-opacity:1;fill-rule:nonzero;stroke:none"
       id="path12"
       inkscape:connector-curvature="0" /><path
       d="M 0,637.981 H 1400 V 980 H 0 Z"
       style="fill:#fff200;fill-opacity:1;fill-rule:nonzero;stroke:none"
       id="path14"
       inkscape:connector-curvature="0" /><g
       id="g16"><g
         id="g18"
         clip-path="url(#clipPath22)"><g
           id="g24"><g
             id="g26" /><g
             id="g46"><g
               clip-path="url(#clipPath30)"
               id="g44"
               style="opacity:0.10000598"><g
                 transform="translate(1141.7546,580.5598)"
                 id="g34"><path
                   d="m 0,0 c 11.962,2.899 18.871,6.315 18.871,9.973 0,10.498 -56.845,19.007 -126.967,19.007 -45.151,0 -84.793,-3.529 -107.304,-8.844 -25.806,2.358 -57.999,3.758 -92.919,3.758 -60.634,0 -113.059,-4.22 -138.06,-10.347 -11.915,1.157 -24.856,1.792 -38.386,1.792 -38.454,0 -72.162,-5.123 -91.001,-12.811 -5.944,0.288 -12.139,0.445 -18.517,0.445 -43.901,0 -79.489,-7.235 -79.489,-16.16 0,-8.925 35.588,-16.161 79.489,-16.161 9.083,0 17.802,0.314 25.932,0.885 19.592,-6.19 49.751,-10.157 83.586,-10.157 52.967,0 96.93,9.719 105.428,22.475 10.473,-1.033 22.228,-1.613 34.65,-1.613 22.341,0 42.516,1.876 56.957,4.893 14.317,0.23 28.008,0.697 40.795,1.368 -1.481,-1.618 -2.273,-3.315 -2.273,-5.065 0,-11.077 31.589,-20.057 70.556,-20.057 38.967,0 70.556,8.98 70.556,20.057 0,2.67 -1.85,5.216 -5.181,7.545 1.719,-0.01 3.445,-0.017 5.181,-0.017 5.12,0 10.167,0.047 15.128,0.135 -0.002,-0.045 -0.016,-0.089 -0.016,-0.135 0,-6.413 25.571,-11.611 57.114,-11.611 31.544,0 57.115,5.198 57.115,11.611 C 21.245,-5.383 12.954,-2.129 0,0"
                   style="fill:#344a61;fill-opacity:1;fill-rule:nonzero;stroke:none"
                   id="path32"
                   inkscape:connector-curvature="0" /></g><g
                 transform="translate(377.267,590.9649)"
                 id="g38"><path
                   d="m 0,0 c -31.544,0 -57.115,-7.269 -57.115,-16.236 0,-8.967 25.571,-16.237 57.115,-16.237 31.544,0 57.115,7.27 57.115,16.237 C 57.115,-7.269 31.544,0 0,0"
                   style="fill:#344a61;fill-opacity:1;fill-rule:nonzero;stroke:none"
                   id="path36"
                   inkscape:connector-curvature="0" /></g><g
                 transform="translate(444.7065,604.3296)"
                 id="g42"><path
                   d="m 0,0 c -10.993,-2.116 -17.861,-5.109 -17.861,-8.43 0,-6.413 25.571,-11.612 57.114,-11.612 31.544,0 57.115,5.199 57.115,11.612 0,6.413 -25.571,11.611 -57.115,11.611 -4.098,0 -8.093,-0.089 -11.947,-0.256 14.64,2.145 23.235,4.754 23.235,7.57 0,7.304 -57.811,13.226 -129.124,13.226 -71.313,0 -129.123,-5.922 -129.123,-13.226 0,-7.305 57.81,-13.227 129.123,-13.227 29.571,0 56.814,1.019 78.583,2.732"
                   style="fill:#344a61;fill-opacity:1;fill-rule:nonzero;stroke:none"
                   id="path40"
                   inkscape:connector-curvature="0" /></g></g></g></g><g
           id="g48"
           transform="translate(259.2866,659.9156)"><path
             d="M 0,0 H 22.575 V 9.337 H 3.099 C 1.388,9.337 0,7.95 0,6.238 Z"
             style="fill:#3c5a89;fill-opacity:1;fill-rule:nonzero;stroke:none"
             id="path50"
             inkscape:connector-curvature="0" /></g><g
           id="g52"
           transform="translate(377.2668,655.2469)"><path
             d="m 0,0 v 0 h -117.98 v -31.208 c 0,-5.089 4.125,-9.215 9.214,-9.215 H 0 108.766 c 5.089,0 9.214,4.126 9.214,9.215 V 0 Z"
             style="fill:#4d8daf;fill-opacity:1;fill-rule:nonzero;stroke:none"
             id="path54"
             inkscape:connector-curvature="0" /></g><g
           id="g56"
           transform="translate(377.2668,669.2529)"><path
             d="M 0,0 V 0 H -84.912 V -9.337 H 0 84.912 V 0 Z"
             style="fill:#3c5a89;fill-opacity:1;fill-rule:nonzero;stroke:none"
             id="path58"
             inkscape:connector-curvature="0" /></g><g
           id="g60"
           transform="translate(260.428,619.5985)"><path
             d="m 0,0 c 1.365,-2.477 3.839,-4.249 6.751,-4.669 h 110.088 110.088 c 2.912,0.42 5.385,2.192 6.751,4.669 H 116.839 Z"
             style="fill:#5a9dba;fill-opacity:1;fill-rule:nonzero;stroke:none"
             id="path62"
             inkscape:connector-curvature="0" /></g><g
           id="g64"
           transform="translate(377.2668,659.9156)"><path
             d="M 0,0 H -117.98 V -4.669 H 0 117.98 V 0 Z"
             style="fill:#5a9dba;fill-opacity:1;fill-rule:nonzero;stroke:none"
             id="path66"
             inkscape:connector-curvature="0" /></g><g
           id="g68"
           transform="translate(259.2865,647.1882)"><path
             d="M 0,0 V -4.669 H 117.98 235.961 V 0 H 117.98 Z"
             style="fill:#5a9dba;fill-opacity:1;fill-rule:nonzero;stroke:none"
             id="path70"
             inkscape:connector-curvature="0" /></g><g
           id="g72"
           transform="translate(259.2865,633.3933)"><path
             d="M 0,0 V -4.669 H 117.98 235.961 V 0 H 117.98 Z"
             style="fill:#5a9dba;fill-opacity:1;fill-rule:nonzero;stroke:none"
             id="path74"
             inkscape:connector-curvature="0" /></g><g
           id="g76"
           transform="translate(260.428,619.5985)"><path
             d="M 0,0 H 116.839 V 2.334 H -0.89 C -0.697,1.509 -0.399,0.724 0,0"
             style="fill:#45849f;fill-opacity:1;fill-rule:nonzero;stroke:none"
             id="path78"
             inkscape:connector-curvature="0" /></g><g
           id="g80"
           transform="translate(377.2668,649.5225)"><path
             d="M 0,0 V 0 H -117.98 V -2.334 H 0 117.98 V 0 Z"
             style="fill:#45849f;fill-opacity:1;fill-rule:nonzero;stroke:none"
             id="path82"
             inkscape:connector-curvature="0" /></g><g
           id="g84"
           transform="translate(377.2668,635.7277)"><path
             d="M 0,0 H -117.98 V -2.334 H 0 117.98 V 0 Z"
             style="fill:#45849f;fill-opacity:1;fill-rule:nonzero;stroke:none"
             id="path86"
             inkscape:connector-curvature="0" /></g><g
           id="g88"
           transform="translate(377.2668,619.5985)"><path
             d="m 0,0 h 116.839 c 0.399,0.724 0.696,1.509 0.89,2.334 H 0 Z"
             style="fill:#45849f;fill-opacity:1;fill-rule:nonzero;stroke:none"
             id="path90"
             inkscape:connector-curvature="0" /></g><g
           id="g92"
           transform="translate(495.2472,659.9156)"><path
             d="M 0,0 H -22.575 V 9.337 H -3.099 C -1.388,9.337 0,7.95 0,6.238 Z"
             style="fill:#3c5a89;fill-opacity:1;fill-rule:nonzero;stroke:none"
             id="path94"
             inkscape:connector-curvature="0" /></g><path
           d="m 259.287,659.916 h 22.575 v 2.487 h -22.575 z"
           style="fill:#364674;fill-opacity:1;fill-rule:nonzero;stroke:none"
           id="path96"
           inkscape:connector-curvature="0" /><g
           id="g98"
           transform="translate(377.2668,662.4024)"><path
             d="M 0,0 V 0 H -84.912 V -2.487 H 0 84.912 V 0 Z"
             style="fill:#364674;fill-opacity:1;fill-rule:nonzero;stroke:none"
             id="path100"
             inkscape:connector-curvature="0" /></g><path
           d="m 495.247,659.916 h -22.575 v 2.487 h 22.575 z"
           style="fill:#364674;fill-opacity:1;fill-rule:nonzero;stroke:none"
           id="path102"
           inkscape:connector-curvature="0" /><g
           id="g104"
           transform="translate(1107.5358,757.7348)"><path
             d="m 0,0 c -4.029,-22.526 -4.117,-45.878 -4.011,-69.406 -0.254,-18.611 -26.984,-18.7 -30.298,0.413 0,0 -1.996,3.432 -3.276,34.435 -1.28,31.002 7.766,45.18 7.766,45.18 C -24.552,26.054 5.267,15.433 0,0 m -3.85,41.109 c -15.51,18.963 -20.428,33.479 -22.3,41.781 -0.329,1.457 -1.624,2.48 -3.118,2.48 h -44.24 c -1.768,0 -3.202,-1.434 -3.202,-3.203 V 64.951 c 0,-6.127 -1.709,-12.125 -4.927,-17.339 -12.056,-19.531 -42.057,-71.088 -42.057,-100.471 v -115.928 c 0,-4.043 3.277,-7.32 7.32,-7.32 H 0.405 c 4.043,0 7.32,3.278 7.32,7.32 C 6.909,-108.672 4.831,-32.58 8.474,-2.235 9.096,5.997 9.791,24.431 -3.85,41.109"
             style="fill:#059dbf;fill-opacity:1;fill-rule:nonzero;stroke:none"
             id="path106"
             inkscape:connector-curvature="0" /></g><path
           d="m 1076.221,860.128 h -41.083 v -17.023 h 41.083 z"
           style="fill:#cdcccc;fill-opacity:1;fill-rule:nonzero;stroke:none"
           id="path108"
           inkscape:connector-curvature="0" /><path
           d="m 1076.221,846.726 h -41.083 v -3.622 h 41.083 z"
           style="fill:#bababb;fill-opacity:1;fill-rule:nonzero;stroke:none"
           id="path110"
           inkscape:connector-curvature="0" /><path
           d="m 1071.228,888.5 h -31.096 v -28.372 h 31.096 z"
           style="fill:#d6d6d6;fill-opacity:1;fill-rule:nonzero;stroke:none"
           id="path112"
           inkscape:connector-curvature="0" /><path
           d="m 1071.228,863.976 h -31.096 v -3.849 h 31.096 z"
           style="fill:#bababb;fill-opacity:1;fill-rule:nonzero;stroke:none"
           id="path114"
           inkscape:connector-curvature="0" /><g
           id="g116"
           transform="translate(1099.3302,649.952)"><path
             d="m 0,0 c -0.074,5.212 -4.401,9.465 -9.614,9.456 h -0.101 c -15.056,0 -27.508,10.247 -30.822,25.124 -1.318,4.171 -2.791,13.313 -3.81,38.027 -0.096,2.335 -0.139,4.59 -0.135,6.767 0.027,13.507 -10.932,24.453 -24.439,24.453 -9.978,0 -18.91,-6.086 -22.682,-15.323 -5.748,-14.079 -8.905,-25.708 -8.905,-33.58 V -35.95 c 0,-9.606 7.787,-17.393 17.393,-17.393 h 66.286 c 9.716,0 17.549,7.96 17.391,17.675 -0.031,1.902 -0.062,3.81 -0.093,5.724 C 0.304,-19.961 0.14,-9.913 0,0"
             style="fill:#18afbf;fill-opacity:1;fill-rule:nonzero;stroke:none"
             id="path118"
             inkscape:connector-curvature="0" /></g><g
           id="g120"
           transform="translate(527.4206,794.855)"><path
             d="m 0,0 h -73.306 c -5.476,0 -9.916,-4.44 -9.916,-9.917 v -52.458 c 0,-1.564 1.268,-2.833 2.833,-2.833 H 7.083 c 1.565,0 2.834,1.269 2.834,2.833 V -9.917 C 9.917,-4.44 5.477,0 0,0"
             style="fill:#3a99d5;fill-opacity:1;fill-rule:nonzero;stroke:none"
             id="path122"
             inkscape:connector-curvature="0" /></g><g
           id="g124"
           transform="translate(454.1152,594.0767)"><path
             d="m 0,0 h 73.305 c 5.477,0 9.917,4.44 9.917,9.917 v 52.458 c 0,1.564 -1.269,2.833 -2.833,2.833 H -7.083 c -1.565,0 -2.834,-1.269 -2.834,-2.833 V 9.917 C -9.917,4.44 -5.477,0 0,0"
             style="fill:#3a99d5;fill-opacity:1;fill-rule:nonzero;stroke:none"
             id="path126"
             inkscape:connector-curvature="0" /></g><path
           d="m 533.207,729.647 h -84.879 v -70.362 h 84.879 z"
           style="fill:#2e7ea6;fill-opacity:1;fill-rule:nonzero;stroke:none"
           id="path128"
           inkscape:connector-curvature="0" /><g
           id="g130"><g
             id="g132" /><g
             id="g144"><g
               clip-path="url(#clipPath136)"
               id="g142"
               style="opacity:0.14999402"><g
                 transform="translate(448.3283,729.647)"
                 id="g140"><path
                   d="M 0,0 V -12.265 L 84.879,0 Z"
                   style="fill:#242d44;fill-opacity:1;fill-rule:nonzero;stroke:none"
                   id="path138"
                   inkscape:connector-curvature="0" /></g></g></g></g><path
           d="m 518.264,802.199 h -54.992 v -7.344 h 54.992 z"
           style="fill:#f7931d;fill-opacity:1;fill-rule:nonzero;stroke:none"
           id="path146"
           inkscape:connector-curvature="0" /><path
           d="m 518.264,796.765 h -54.992 v -1.91 h 54.992 z"
           style="fill:#dc7e26;fill-opacity:1;fill-rule:nonzero;stroke:none"
           id="path148"
           inkscape:connector-curvature="0" /><g
           id="g150"
           transform="translate(514.9468,854.1482)"><path
             d="m 0,0 h -48.358 c -1.832,0 -3.317,-1.485 -3.317,-3.317 V -49.449 H 3.317 V -3.317 C 3.317,-1.485 1.832,0 0,0"
             style="fill:#f7931d;fill-opacity:1;fill-rule:nonzero;stroke:none"
             id="path152"
             inkscape:connector-curvature="0" /></g><path
           d="m 514.662,804.699 h -47.789 v -2.5 h 47.789 z"
           style="fill:#2e7ea6;fill-opacity:1;fill-rule:nonzero;stroke:none"
           id="path154"
           inkscape:connector-curvature="0" /><path
           d="m 518.264,809.046 h -54.992 v -4.347 h 54.992 z"
           style="fill:#dc7e26;fill-opacity:1;fill-rule:nonzero;stroke:none"
           id="path156"
           inkscape:connector-curvature="0" /><g
           id="g158"
           transform="translate(881.8932,868.995)"><path
             d="m 0,0 c 0,-7.321 -5.934,-13.255 -13.255,-13.255 h -80.334 c -7.32,0 -13.255,5.934 -13.255,13.255 0,7.321 5.935,13.255 13.255,13.255 h 80.334 C -5.934,13.255 0,7.321 0,0 m -163.586,19.794 v -302.952 h 32.48 v 22.389 c 0,8.009 6.493,14.502 14.502,14.502 H 9.76 c 8.009,0 14.502,-6.492 14.502,-14.502 v -22.389 H 56.743 V 19.794 c 0,9.127 -7.399,16.525 -16.525,16.525 h -187.28 c -9.126,0 -16.524,-7.398 -16.524,-16.525"
             style="fill:#f37434;fill-opacity:1;fill-rule:nonzero;stroke:none"
             id="path160"
             inkscape:connector-curvature="0" /></g><g
           id="g162"
           transform="translate(809.4856,722.947)"><path
             d="M 0,0 C 0.39,0 0.79,0.112 1.157,0.356 1.956,0.886 2.243,1.921 1.9,2.817 -0.921,10.182 0.255,15.323 5.613,18.819 5.644,18.745 5.676,18.671 5.711,18.598 l 5.37,-11.349 c 0.592,-1.252 1.94,-1.901 3.24,-1.665 0.158,0.029 0.32,0.006 0.474,-0.038 10e-4,-0.001 10e-4,-0.001 0.002,-0.001 8.068,-2.333 12.688,-7.413 14.123,-15.531 0.176,-0.994 1.04,-1.693 2.016,-1.693 0.112,0 0.226,0.01 0.34,0.029 1.121,0.186 1.868,1.328 1.667,2.447 C 31.47,-0.976 27.081,4.809 19.878,8.046 19.877,8.07 19.877,8.073 19.876,8.097 l 2.945,1.515 c 6.161,2.656 11.533,1.59 16.293,-3.201 0.798,-0.803 2.095,-0.807 2.898,-0.01 0.803,0.798 0.807,2.095 0.009,2.898 -3.93,3.955 -8.338,5.923 -13.091,5.863 -2.523,-0.034 -5.151,-0.656 -7.862,-1.847 l -4.667,9.866 c 2.698,1.099 4.835,2.71 6.376,4.82 2.39,3.271 3.346,7.749 2.842,13.312 -0.106,1.174 -1.185,2.028 -2.371,1.837 C 22.17,42.977 21.449,41.95 21.545,40.862 22.247,32.888 19.601,28.253 13.253,26.423 11.776,27.056 10.045,27.078 8.478,26.336 7.222,25.742 6.279,24.755 5.723,23.592 1.396,21.433 -1.477,18.508 -2.813,14.896 -4.219,11.097 -3.916,6.528 -1.913,1.315 -1.6,0.5 -0.823,0 0,0"
             style="fill:#ffffff;fill-opacity:1;fill-rule:nonzero;stroke:none"
             id="path164"
             inkscape:connector-curvature="0" /></g><g
           id="g166"
           transform="translate(816.1783,749.3101)"><path
             d="M 0,0 C 2.999,0 5.43,2.431 5.43,5.43 5.43,8.428 2.999,10.859 0,10.859 -2.999,10.859 -5.43,8.428 -5.43,5.43 -5.43,2.431 -2.999,0 0,0"
             style="fill:#ffffff;fill-opacity:1;fill-rule:nonzero;stroke:none"
             id="path168"
             inkscape:connector-curvature="0" /></g><path
           d="m 804.226,703.961 h 56.55 v 2.732 h -56.55 z"
           style="fill:#ffffff;fill-opacity:1;fill-rule:nonzero;stroke:none"
           id="path170"
           inkscape:connector-curvature="0" /><g
           id="g172"
           transform="translate(780.1071,707.7768)"><path
             d="m 0,0 c -1.447,-2.506 -1.447,-5.498 0,-8.004 1.447,-2.506 4.038,-4.002 6.932,-4.002 h 82.865 c 2.894,0 5.485,1.496 6.932,4.002 1.446,2.506 1.446,5.498 0,8.004 L 55.296,71.764 c -1.447,2.506 -4.038,4.002 -6.932,4.002 -2.893,0 -5.484,-1.496 -6.931,-4.002 z M 89.797,-15.807 H 6.932 c -4.268,0 -8.09,2.206 -10.224,5.902 -2.134,3.696 -2.134,8.11 0,11.806 L 38.14,73.665 c 2.134,3.696 5.956,5.902 10.224,5.902 4.268,0 8.09,-2.206 10.224,-5.902 L 100.021,1.901 c 2.134,-3.696 2.134,-8.11 0,-11.806 -2.134,-3.696 -5.956,-5.902 -10.224,-5.902"
             style="fill:#ffffff;fill-opacity:1;fill-rule:nonzero;stroke:none"
             id="path174"
             inkscape:connector-curvature="0" /></g><g
           id="g176"
           transform="translate(788.4964,807.5079)"><path
             d="M 0,0 3.294,-1.044 C 2.789,-2.881 1.949,-4.245 0.775,-5.137 -0.4,-6.028 -1.89,-6.474 -3.696,-6.474 c -2.235,0 -4.071,0.763 -5.51,2.29 -1.439,1.527 -2.158,3.614 -2.158,6.262 0,2.801 0.723,4.976 2.169,6.525 1.447,1.55 3.348,2.325 5.705,2.325 2.059,0 3.731,-0.609 5.016,-1.825 0.766,-0.72 1.34,-1.753 1.722,-3.1 L -0.115,5.2 C -0.314,6.072 -0.729,6.761 -1.36,7.266 -1.992,7.771 -2.759,8.024 -3.662,8.024 -4.909,8.024 -5.921,7.576 -6.698,6.681 -7.475,5.785 -7.863,4.335 -7.863,2.33 c 0,-2.127 0.382,-3.642 1.148,-4.545 0.765,-0.903 1.76,-1.355 2.984,-1.355 0.903,0 1.68,0.287 2.33,0.861 C -0.75,-2.135 -0.283,-1.232 0,0"
             style="fill:#ffffff;fill-opacity:1;fill-rule:nonzero;stroke:none"
             id="path178"
             inkscape:connector-curvature="0" /></g><g
           id="g180"
           transform="translate(803.3901,807.9787)"><path
             d="M 0,0 -2.319,6.244 -4.591,0 Z M 6.256,-6.658 H 2.56 l -1.47,3.823 h -6.726 l -1.389,-3.823 h -3.604 l 6.554,16.828 h 3.593 z"
             style="fill:#ffffff;fill-opacity:1;fill-rule:nonzero;stroke:none"
             id="path182"
             inkscape:connector-curvature="0" /></g><g
           id="g184"
           transform="translate(811.19,818.1487)"><path
             d="m 0,0 h 3.398 v -9.114 c 0,-1.446 0.042,-2.384 0.126,-2.812 0.145,-0.689 0.491,-1.242 1.039,-1.659 0.547,-0.417 1.295,-0.626 2.244,-0.626 0.964,0 1.691,0.197 2.181,0.591 0.489,0.395 0.784,0.879 0.884,1.453 0.099,0.574 0.149,1.526 0.149,2.858 V 0 h 3.397 v -8.839 c 0,-2.02 -0.092,-3.447 -0.275,-4.281 -0.184,-0.834 -0.522,-1.538 -1.016,-2.112 -0.494,-0.574 -1.153,-1.032 -1.98,-1.372 -0.826,-0.34 -1.905,-0.511 -3.237,-0.511 -1.607,0 -2.826,0.186 -3.656,0.557 -0.83,0.371 -1.486,0.853 -1.968,1.446 -0.482,0.593 -0.8,1.215 -0.953,1.866 C 0.111,-12.282 0,-10.859 0,-8.976 Z"
             style="fill:#ffffff;fill-opacity:1;fill-rule:nonzero;stroke:none"
             id="path186"
             inkscape:connector-curvature="0" /></g><g
           id="g188"
           transform="translate(831.7426,801.3211)"><path
             d="m 0,0 v 13.981 h -4.993 v 2.847 H 8.379 V 13.981 H 3.398 L 3.398,0 Z"
             style="fill:#ffffff;fill-opacity:1;fill-rule:nonzero;stroke:none"
             id="path190"
             inkscape:connector-curvature="0" /></g><path
           d="m 841.976,818.149 h 3.398 v -16.828 h -3.398 z"
           style="fill:#ffffff;fill-opacity:1;fill-rule:nonzero;stroke:none"
           id="path192"
           inkscape:connector-curvature="0" /><g
           id="g194"
           transform="translate(851.188,809.7463)"><path
             d="m 0,0 c 0,-1.905 0.44,-3.35 1.32,-4.333 0.88,-0.984 1.997,-1.475 3.352,-1.475 1.354,0 2.466,0.488 3.334,1.463 0.869,0.976 1.303,2.44 1.303,4.391 0,1.928 -0.423,3.367 -1.268,4.316 C 7.195,5.311 6.072,5.785 4.672,5.785 3.271,5.785 2.142,5.305 1.286,4.345 0.428,3.384 0,1.936 0,0 m -3.501,-0.115 c 0,1.714 0.256,3.153 0.769,4.316 0.383,0.857 0.905,1.626 1.567,2.308 0.662,0.68 1.387,1.185 2.175,1.515 1.048,0.443 2.257,0.665 3.627,0.665 2.48,0 4.464,-0.769 5.952,-2.307 1.488,-1.538 2.232,-3.677 2.232,-6.417 0,-2.716 -0.738,-4.842 -2.215,-6.376 -1.477,-1.534 -3.451,-2.301 -5.923,-2.301 -2.502,0 -4.492,0.763 -5.969,2.29 -1.477,1.526 -2.215,3.629 -2.215,6.307"
             style="fill:#ffffff;fill-opacity:1;fill-rule:nonzero;stroke:none"
             id="path196"
             inkscape:connector-curvature="0" /></g><g
           id="g198"
           transform="translate(866.4604,801.3211)"><path
             d="M 0,0 V 16.828 H 3.306 L 10.193,5.59 V 16.828 H 13.35 V 0 H 9.94 L 3.157,10.974 V 0 Z"
             style="fill:#ffffff;fill-opacity:1;fill-rule:nonzero;stroke:none"
             id="path200"
             inkscape:connector-curvature="0" /></g><g
           id="g202"
           transform="translate(778.2941,665.2765)"><path
             d="m 0,0 -3.08,12.901 h 2.666 L 1.531,4.039 3.89,12.901 h 3.097 l 2.262,-9.011 1.98,9.011 h 2.622 L 10.718,0 H 7.955 L 5.385,9.645 2.825,0 Z"
             style="fill:#ffffff;fill-opacity:1;fill-rule:nonzero;stroke:none"
             id="path204"
             inkscape:connector-curvature="0" /></g><g
           id="g206"
           transform="translate(793.2936,665.2765)"><path
             d="M 0,0 V 12.901 H 9.565 V 10.718 H 2.605 V 7.858 H 9.081 V 5.685 H 2.605 V 2.174 H 9.812 V 0 Z"
             style="fill:#ffffff;fill-opacity:1;fill-rule:nonzero;stroke:none"
             id="path208"
             inkscape:connector-curvature="0" /></g><g
           id="g210"
           transform="translate(808.0378,665.2765)"><path
             d="m 0,0 v 10.718 h -3.828 v 2.183 H 6.424 V 10.718 H 2.605 L 2.605,0 Z"
             style="fill:#ffffff;fill-opacity:1;fill-rule:nonzero;stroke:none"
             id="path212"
             inkscape:connector-curvature="0" /></g><g
           id="g214"
           transform="translate(820.8065,665.2765)"><path
             d="M 0,0 V 12.901 H 8.844 V 10.718 H 2.605 V 7.664 H 7.99 V 5.482 H 2.605 L 2.605,0 Z"
             style="fill:#ffffff;fill-opacity:1;fill-rule:nonzero;stroke:none"
             id="path216"
             inkscape:connector-curvature="0" /></g><g
           id="g218"
           transform="translate(831.6878,665.2765)"><path
             d="M 0,0 V 12.795 H 2.605 V 2.174 H 9.081 V 0 Z"
             style="fill:#ffffff;fill-opacity:1;fill-rule:nonzero;stroke:none"
             id="path220"
             inkscape:connector-curvature="0" /></g><g
           id="g222"
           transform="translate(844.602,671.7356)"><path
             d="m 0,0 c 0,-1.461 0.337,-2.568 1.012,-3.322 0.674,-0.754 1.531,-1.131 2.569,-1.131 1.039,0 1.891,0.374 2.557,1.122 0.665,0.748 0.998,1.87 0.998,3.366 0,1.478 -0.324,2.581 -0.972,3.309 C 5.516,4.071 4.655,4.435 3.581,4.435 2.508,4.435 1.642,4.067 0.985,3.331 0.328,2.594 0,1.484 0,0 m -2.684,-0.088 c 0,1.314 0.196,2.417 0.589,3.309 0.294,0.657 0.694,1.246 1.202,1.769 0.507,0.521 1.063,0.908 1.667,1.161 0.804,0.34 1.731,0.51 2.781,0.51 1.901,0 3.421,-0.589 4.562,-1.768 1.142,-1.18 1.712,-2.819 1.712,-4.919 0,-2.083 -0.566,-3.713 -1.698,-4.889 -1.133,-1.176 -2.646,-1.764 -4.541,-1.764 -1.918,0 -3.444,0.585 -4.576,1.755 -1.132,1.171 -1.698,2.783 -1.698,4.836"
             style="fill:#ffffff;fill-opacity:1;fill-rule:nonzero;stroke:none"
             id="path224"
             inkscape:connector-curvature="0" /></g><g
           id="g226"
           transform="translate(858.4398,671.7356)"><path
             d="m 0,0 c 0,-1.461 0.337,-2.568 1.012,-3.322 0.674,-0.754 1.531,-1.131 2.57,-1.131 1.038,0 1.89,0.374 2.556,1.122 0.666,0.748 0.999,1.87 0.999,3.366 0,1.478 -0.325,2.581 -0.973,3.309 C 5.516,4.071 4.655,4.435 3.582,4.435 2.508,4.435 1.642,4.067 0.986,3.331 0.328,2.594 0,1.484 0,0 m -2.684,-0.088 c 0,1.314 0.196,2.417 0.59,3.309 0.293,0.657 0.693,1.246 1.201,1.769 0.507,0.521 1.063,0.908 1.667,1.161 0.804,0.34 1.731,0.51 2.781,0.51 1.901,0 3.422,-0.589 4.563,-1.768 1.141,-1.18 1.711,-2.819 1.711,-4.919 0,-2.083 -0.566,-3.713 -1.698,-4.889 -1.132,-1.176 -2.646,-1.764 -4.541,-1.764 -1.918,0 -3.443,0.585 -4.576,1.755 -1.132,1.171 -1.698,2.783 -1.698,4.836"
             style="fill:#ffffff;fill-opacity:1;fill-rule:nonzero;stroke:none"
             id="path228"
             inkscape:connector-curvature="0" /></g><g
           id="g230"
           transform="translate(872.7349,672.7211)"><path
             d="m 0,0 h 1.927 c 1.25,0 2.03,0.053 2.341,0.158 0.311,0.106 0.554,0.288 0.73,0.546 0.176,0.258 0.264,0.581 0.264,0.968 0,0.434 -0.116,0.784 -0.347,1.051 C 4.683,2.99 4.356,3.159 3.934,3.23 3.722,3.259 3.089,3.274 2.033,3.274 H 0 Z M -2.605,-7.445 V 5.456 H 2.878 C 4.256,5.456 5.258,5.34 5.883,5.108 6.508,4.876 7.008,4.464 7.383,3.872 7.759,3.279 7.946,2.602 7.946,1.839 7.946,0.871 7.661,0.072 7.093,-0.559 6.523,-1.19 5.673,-1.587 4.541,-1.751 5.104,-2.08 5.569,-2.44 5.936,-2.834 6.302,-3.227 6.796,-3.925 7.418,-4.928 L 8.994,-7.445 H 5.878 L 3.995,-4.638 C 3.326,-3.634 2.869,-3.002 2.622,-2.741 2.376,-2.48 2.115,-2.301 1.839,-2.204 1.563,-2.108 1.127,-2.059 0.528,-2.059 H 0 v -5.386 z"
             style="fill:#ffffff;fill-opacity:1;fill-rule:nonzero;stroke:none"
             id="path232"
             inkscape:connector-curvature="0" /></g><g
           id="g234"
           transform="translate(728.8379,784.4996)"><path
             d="m 0,0 c 2.313,2.726 3.715,6.249 3.715,10.104 0,8.634 -7,15.634 -15.634,15.634 -8.634,0 -15.634,-7 -15.634,-15.634 0,-0.212 0.024,-0.418 0.032,-0.628 -1.621,0.409 -3.317,0.628 -5.065,0.628 -8.156,0 -15.206,-4.726 -18.568,-11.587 -2.402,0.977 -5.028,1.521 -7.782,1.521 -5.551,0 -10.588,-2.193 -14.301,-5.755 -0.954,10.528 -9.8,18.779 -20.577,18.779 -11.031,0 -20.041,-8.642 -20.634,-19.524 -1.554,0.373 -3.174,0.576 -4.842,0.576 -1.444,0 -2.852,-0.15 -4.213,-0.431 0.003,0.143 0.011,0.286 0.011,0.431 0,11.414 -9.253,20.667 -20.667,20.667 -11.414,0 -20.667,-9.253 -20.667,-20.667 0,-1.286 0.123,-2.541 0.348,-3.762 -5.312,-3.74 -8.786,-9.915 -8.786,-16.905 0,-11.415 9.253,-20.668 20.667,-20.668 6.834,0 12.891,3.32 16.654,8.432 3.762,-5.112 9.819,-8.432 16.653,-8.432 11.031,0 20.041,8.642 20.635,19.525 1.553,-0.373 3.173,-0.576 4.841,-0.576 5.551,0 10.587,2.193 14.301,5.754 0.954,-10.528 9.8,-18.779 20.577,-18.779 8.156,0 15.206,4.726 18.567,11.587 2.403,-0.977 5.029,-1.52 7.783,-1.52 4.423,0 8.518,1.394 11.88,3.76 2.824,-8.051 10.487,-13.827 19.503,-13.827 11.414,0 20.667,9.253 20.667,20.668 C 19.464,-9.62 10.854,-0.624 0,0"
             style="fill:#f3f3f3;fill-opacity:1;fill-rule:nonzero;stroke:none"
             id="path236"
             inkscape:connector-curvature="0" /></g><g
           id="g238"
           transform="translate(654.2683,830.5398)"><path
             d="m 0,0 c 0,-8.634 6.999,-15.633 15.634,-15.633 8.634,0 15.633,6.999 15.633,15.633 0,8.635 -6.999,15.634 -15.633,15.634 C 6.999,15.634 0,8.635 0,0"
             style="fill:#f3f3f3;fill-opacity:1;fill-rule:nonzero;stroke:none"
             id="path240"
             inkscape:connector-curvature="0" /></g><g
           id="g242"
           transform="translate(674.4255,903.3221)"><path
             d="M 0,0 C 6.136,0 11.11,4.974 11.11,11.11 11.11,17.246 6.136,22.22 0,22.22 -6.136,22.22 -11.11,17.246 -11.11,11.11 -11.11,4.974 -6.136,0 0,0"
             style="fill:#f3f3f3;fill-opacity:1;fill-rule:nonzero;stroke:none"
             id="path244"
             inkscape:connector-curvature="0" /></g><g
           id="g246"
           transform="translate(640.8278,856.1834)"><path
             d="M 0,0 C 6.136,0 11.11,4.974 11.11,11.11 11.11,17.246 6.136,22.22 0,22.22 -6.136,22.22 -11.11,17.246 -11.11,11.11 -11.11,4.974 -6.136,0 0,0"
             style="fill:#f3f3f3;fill-opacity:1;fill-rule:nonzero;stroke:none"
             id="path248"
             inkscape:connector-curvature="0" /></g><g
           id="g250"
           transform="translate(620.9796,799.2726)"><path
             d="m 0,0 c 8.634,0 15.634,6.999 15.634,15.634 0,8.634 -7,15.633 -15.634,15.633 -8.634,0 -15.634,-6.999 -15.634,-15.633 C -15.634,6.999 -8.634,0 0,0"
             style="fill:#f3f3f3;fill-opacity:1;fill-rule:nonzero;stroke:none"
             id="path252"
             inkscape:connector-curvature="0" /></g><path
           d="m 551.817,749.047 h -8.691 v 5.931 h 8.691 z"
           style="fill:#81223c;fill-opacity:1;fill-rule:nonzero;stroke:none"
           id="path254"
           inkscape:connector-curvature="0" /><path
           d="m 768.255,749.047 h -8.691 v 5.931 h 8.691 z"
           style="fill:#81223c;fill-opacity:1;fill-rule:nonzero;stroke:none"
           id="path256"
           inkscape:connector-curvature="0" /><g
           id="g258"
           transform="translate(655.6907,740.1549)"><path
             d="m 0,0 h -96.32 l 24.08,-158.717 c 0,-18.754 144.48,-18.754 144.48,0 L 96.32,0 Z"
             style="fill:#cc534e;fill-opacity:1;fill-rule:nonzero;stroke:none"
             id="path260"
             inkscape:connector-curvature="0" /></g><g
           id="g262"
           transform="translate(656.9894,740.1549)"><path
             d="m 0,0 h -1.299 -96.319 l 24.08,-158.717 c 0,-9.489 36.991,-14.174 73.538,-14.06 z"
             style="fill:#bd4242;fill-opacity:1;fill-rule:nonzero;stroke:none"
             id="path264"
             inkscape:connector-curvature="0" /></g><path
           d="M 759.565,763.87 H 551.817 v -23.715 h 207.748 z"
           style="fill:#cc534e;fill-opacity:1;fill-rule:nonzero;stroke:none"
           id="path266"
           inkscape:connector-curvature="0" /><path
           d="M 759.565,752.013 H 551.817 v -11.858 h 207.748 z"
           style="fill:#bd4242;fill-opacity:1;fill-rule:nonzero;stroke:none"
           id="path268"
           inkscape:connector-curvature="0" /><g
           id="g270"><g
             id="g272" /><g
             id="g284"><g
               clip-path="url(#clipPath276)"
               id="g282"
               style="opacity:0.39999402"><g
                 transform="translate(750.6336,730.5022)"
                 id="g280"><path
                   d="m 0,0 1.377,9.653 h -96.32 -96.32 L -189.886,0 Z"
                   style="fill:#81223c;fill-opacity:1;fill-rule:nonzero;stroke:none"
                   id="path278"
                   inkscape:connector-curvature="0" /></g></g></g></g><g
           id="g286"><g
             id="g288" /><g
             id="g300"><g
               clip-path="url(#clipPath292)"
               id="g298"
               style="opacity:0.39999402"><g
                 transform="translate(715.9063,666.255)"
                 id="g296"><path
                   d="M 0,0 C -0.092,0.088 -0.192,0.167 -0.287,0.251 -0.305,0.267 -0.323,0.283 -0.341,0.299 -0.568,0.497 -0.801,0.686 -1.043,0.863 -1.073,0.885 -1.104,0.907 -1.134,0.929 -1.367,1.096 -1.605,1.254 -1.85,1.402 -1.895,1.429 -1.94,1.455 -1.986,1.481 -2.22,1.618 -2.457,1.747 -2.701,1.865 -2.763,1.895 -2.827,1.923 -2.89,1.952 -3.121,2.058 -3.354,2.159 -3.592,2.249 -3.674,2.28 -3.758,2.307 -3.841,2.336 -4.065,2.414 -4.289,2.489 -4.518,2.552 -4.621,2.58 -4.725,2.602 -4.828,2.628 -5.043,2.68 -5.257,2.731 -5.474,2.77 -5.598,2.792 -5.723,2.806 -5.848,2.824 -6.049,2.853 -6.251,2.882 -6.454,2.899 -6.599,2.912 -6.745,2.914 -6.89,2.92 -7.078,2.928 -7.264,2.939 -7.453,2.937 -7.618,2.935 -7.784,2.921 -7.949,2.912 -8.12,2.902 -8.291,2.897 -8.462,2.879 -8.65,2.859 -8.838,2.824 -9.026,2.793 -9.176,2.769 -9.327,2.752 -9.476,2.721 -9.696,2.675 -9.914,2.613 -10.132,2.553 -10.251,2.52 -10.37,2.496 -10.488,2.459 c -0.336,-0.105 -0.671,-0.226 -1.001,-0.367 -32.981,-14.015 -63.93,-14.051 -94.616,-0.105 -0.329,0.15 -0.663,0.281 -0.999,0.394 -0.123,0.042 -0.249,0.07 -0.373,0.107 -0.212,0.063 -0.424,0.13 -0.638,0.18 -0.162,0.037 -0.324,0.059 -0.486,0.088 -0.177,0.033 -0.355,0.071 -0.532,0.095 -0.187,0.024 -0.374,0.032 -0.561,0.047 -0.152,0.011 -0.304,0.029 -0.456,0.034 -0.211,0.007 -0.422,-0.002 -0.632,-0.008 -0.125,-0.003 -0.25,0 -0.375,-0.008 -0.233,-0.015 -0.465,-0.045 -0.696,-0.075 -0.099,-0.013 -0.198,-0.02 -0.296,-0.036 -0.254,-0.04 -0.504,-0.095 -0.754,-0.153 -0.072,-0.017 -0.145,-0.029 -0.216,-0.048 -0.271,-0.069 -0.537,-0.153 -0.802,-0.243 -0.047,-0.016 -0.095,-0.029 -0.142,-0.046 -0.282,-0.1 -0.558,-0.215 -0.83,-0.339 -0.027,-0.012 -0.055,-0.022 -0.081,-0.035 -0.287,-0.133 -0.568,-0.28 -0.842,-0.439 -0.011,-0.006 -0.021,-0.011 -0.032,-0.017 -1.076,-0.626 -2.044,-1.446 -2.855,-2.435 -11.844,6.387 -22.34,14.992 -30.409,25.918 l 2.102,-13.852 c 2.866,-2.947 5.95,-5.748 9.264,-8.384 5.132,-4.082 10.705,-7.704 16.64,-10.841 0.158,-3.88 2.434,-7.532 6.211,-9.248 17.99,-8.176 36.402,-12.263 55.107,-12.263 18.623,0 37.537,4.053 56.609,12.158 4.37,1.857 6.849,6.296 6.421,10.784 4.973,2.798 9.692,5.926 14.072,9.41 3.315,2.636 6.399,5.437 9.265,8.384 l 2.104,13.872 C 21.008,14.588 11.142,6.284 0,0"
                   style="fill:#3a99d5;fill-opacity:1;fill-rule:nonzero;stroke:none"
                   id="path294"
                   inkscape:connector-curvature="0" /></g></g></g></g><g
           id="g302"
           transform="translate(655.6907,652.6048)"><path
             d="m 0,0 h -0.001 c -29.498,0 -57.032,8.978 -77.53,25.282 -23.285,18.52 -35.593,44.914 -35.593,76.33 0,2.06 1.669,3.729 3.729,3.729 2.06,0 3.73,-1.669 3.73,-3.729 0,-64.689 54.773,-94.153 105.664,-94.153 50.892,0 105.666,29.463 105.666,94.153 0,2.06 1.67,3.729 3.73,3.729 2.06,0 3.729,-1.669 3.729,-3.729 0,-31.416 -12.308,-57.811 -35.594,-76.331 C 57.033,8.98 29.496,0 0,0"
             style="fill:#576674;fill-opacity:1;fill-rule:nonzero;stroke:none"
             id="path304"
             inkscape:connector-curvature="0" /></g><g
           id="g306"
           transform="translate(656.1181,645.5343)"><path
             d="m 0,0 c -18.705,0 -37.117,4.088 -55.107,12.263 -5.342,2.428 -7.704,8.726 -5.277,14.068 2.428,5.342 8.727,7.701 14.067,5.276 30.686,-13.946 61.635,-13.91 94.616,0.105 5.4,2.297 11.637,-0.222 13.932,-5.621 C 64.526,20.69 62.009,14.453 56.61,12.158 37.537,4.053 18.624,0 0,0"
             style="fill:#242d44;fill-opacity:1;fill-rule:nonzero;stroke:none"
             id="path308"
             inkscape:connector-curvature="0" /></g><g
           id="g310"
           transform="translate(704.417,677.2464)"><path
             d="m 0,0 c -32.98,-14.015 -63.93,-14.051 -94.615,-0.105 -5.21,2.366 -11.323,0.169 -13.873,-4.9 1.052,-2.085 2.79,-3.841 5.082,-4.883 17.99,-8.175 36.402,-12.263 55.107,-12.263 18.624,0 37.537,4.053 56.61,12.158 2.403,1.022 4.231,2.826 5.322,4.988 C 11.137,-0.039 5.187,2.206 0,0"
             style="fill:#323c59;fill-opacity:1;fill-rule:nonzero;stroke:none"
             id="path312"
             inkscape:connector-curvature="0" /></g><g
           id="g314"
           transform="translate(1007.5095,799.8844)"><path
             d="m 0,0 h -91.1 c -0.978,0 -1.771,0.793 -1.771,1.771 V 24.52 c 0,0.978 0.793,1.771 1.771,1.771 h 80.814 c 7.004,0 12.682,-5.677 12.682,-12.681 V 2.396 C 2.396,1.073 1.323,0 0,0"
             style="fill:#d1d3d4;fill-opacity:1;fill-rule:nonzero;stroke:none"
             id="path316"
             inkscape:connector-curvature="0" /></g><g
           id="g318"
           transform="translate(995.6774,799.8844)"><path
             d="M 0,0 -6.623,-22.58 H -34.037 C -35.406,-9.843 -45.797,-3.097 -58.15,0 Z"
             style="fill:#bcbec0;fill-opacity:1;fill-rule:nonzero;stroke:none"
             id="path320"
             inkscape:connector-curvature="0" /></g><path
           d="m 911.545,806.998 h 3.093 v 17.244 h -3.093 z"
           style="fill:#099f5e;fill-opacity:1;fill-rule:nonzero;stroke:none"
           id="path322"
           inkscape:connector-curvature="0" /><path
           d="m 908.452,808.313 h 3.093 v 14.615 h -3.093 z"
           style="fill:#d7df23;fill-opacity:1;fill-rule:nonzero;stroke:none"
           id="path324"
           inkscape:connector-curvature="0" /><g
           id="g326"
           transform="translate(989.3573,759.6311)"><path
             d="m 0,0 h -28.02 c -0.377,0 -0.682,0.305 -0.682,0.682 v 16.309 c 0,0.377 0.305,0.683 0.682,0.683 H 0 c 0.377,0 0.682,-0.306 0.682,-0.683 V 0.682 C 0.682,0.305 0.377,0 0,0"
             style="fill:#e8e73c;fill-opacity:1;fill-rule:nonzero;stroke:none"
             id="path328"
             inkscape:connector-curvature="0" /></g><g
           id="g330"
           transform="translate(990.0396,774.7354)"><path
             d="m 0,0 v -14.555 c 0,-0.304 -0.246,-0.549 -0.549,-0.549 h -28.286 c -0.304,0 -0.549,0.245 -0.549,0.549 V 0 Z"
             style="fill:#d7df23;fill-opacity:1;fill-rule:nonzero;stroke:none"
             id="path332"
             inkscape:connector-curvature="0" /></g><g
           id="g334"
           transform="translate(962.5888,759.6311)"><path
             d="m 0,0 v -26.35 c 0,-2.666 -0.904,-5.252 -2.565,-7.338 l -41.421,-52.018 c -1.661,-2.085 -2.565,-4.672 -2.565,-7.337 v -92.053 c 0,-6.505 5.274,-11.779 11.78,-11.779 h 71.708 c 6.505,0 11.779,5.274 11.779,11.779 v 103.825 c 0,21.333 -4.746,42.399 -13.894,61.671 L 25.518,0 Z"
             style="fill:#099f5e;fill-opacity:1;fill-rule:nonzero;stroke:none"
             id="path336"
             inkscape:connector-curvature="0" /></g><g
           id="g338"><g
             id="g340" /><g
             id="g352"><g
               clip-path="url(#clipPath344)"
               id="g350"
               style="opacity:0.5"><g
                 transform="translate(949.6113,794.7452)"
                 id="g348"><path
                   d="m 0,0 c -3.38,2.304 -7.461,3.98 -12.084,5.139 h 58.15 L 44.485,0 Z"
                   style="fill:#a7a9ac;fill-opacity:1;fill-rule:nonzero;stroke:none"
                   id="path346"
                   inkscape:connector-curvature="0" /></g></g></g></g><g
           id="g354"
           transform="translate(962.5888,754.492)"><path
             d="M 0,0 V 5.139 H 25.518 L 27.957,0 Z"
             style="fill:#0a894e;fill-opacity:1;fill-rule:nonzero;stroke:none"
             id="path356"
             inkscape:connector-curvature="0" /></g><g
           id="g358"
           transform="translate(936.9448,799.8844)"><path
             d="m 0,0 -10.887,-17.228 c -0.658,-1.041 -2.159,-0.608 -1.863,0.538 L -8.446,0 Z"
             style="fill:#d7df23;fill-opacity:1;fill-rule:nonzero;stroke:none"
             id="path360"
             inkscape:connector-curvature="0" /></g><g
           id="g362"
           transform="translate(945.3328,574.5356)"><path
             d="M 0,0 C 7.703,0 13.971,6.267 13.971,13.97 V 77.531 C 13.971,85.235 7.703,91.502 0,91.502 H -29.295 V 0 Z"
             style="fill:#f3f3f3;fill-opacity:1;fill-rule:nonzero;stroke:none"
             id="path364"
             inkscape:connector-curvature="0" /></g><g
           id="g366"
           transform="translate(945.3328,664.5927)"><path
             d="M 0,0 C 6.918,0 12.526,-5.608 12.526,-12.526 V -76.087 C 12.526,-83.005 6.918,-88.613 0,-88.613 H -29.295 V 0 Z"
             style="fill:#72af50;fill-opacity:1;fill-rule:nonzero;stroke:none"
             id="path368"
             inkscape:connector-curvature="0" /></g><g
           id="g370"
           transform="translate(346.7813,810.2895)"><path
             d="m 0,0 h 91.1 c 0.978,0 1.771,0.793 1.771,1.771 V 24.52 c 0,0.978 -0.793,1.771 -1.771,1.771 H 10.286 C 3.282,26.291 -2.396,20.614 -2.396,13.61 V 2.396 C -2.396,1.073 -1.323,0 0,0"
             style="fill:#d1d3d4;fill-opacity:1;fill-rule:nonzero;stroke:none"
             id="path372"
             inkscape:connector-curvature="0" /></g><g
           id="g374"
           transform="translate(358.6134,810.2895)"><path
             d="M 0,0 6.623,-22.58 H 34.037 C 35.406,-9.843 45.797,-3.097 58.15,0 Z"
             style="fill:#bcbec0;fill-opacity:1;fill-rule:nonzero;stroke:none"
             id="path376"
             inkscape:connector-curvature="0" /></g><path
           d="m 442.745,817.404 h -3.093 v 17.244 h 3.093 z"
           style="fill:#b6792f;fill-opacity:1;fill-rule:nonzero;stroke:none"
           id="path378"
           inkscape:connector-curvature="0" /><path
           d="m 445.839,818.718 h -3.093 v 14.615 h 3.093 z"
           style="fill:#f1c333;fill-opacity:1;fill-rule:nonzero;stroke:none"
           id="path380"
           inkscape:connector-curvature="0" /><g
           id="g382"
           transform="translate(364.9336,770.0362)"><path
             d="m 0,0 h 28.02 c 0.377,0 0.682,0.305 0.682,0.682 v 16.309 c 0,0.377 -0.305,0.683 -0.682,0.683 H 0 c -0.377,0 -0.682,-0.306 -0.682,-0.683 V 0.682 C -0.682,0.305 -0.377,0 0,0"
             style="fill:#c4833b;fill-opacity:1;fill-rule:nonzero;stroke:none"
             id="path384"
             inkscape:connector-curvature="0" /></g><g
           id="g386"
           transform="translate(364.2513,785.1405)"><path
             d="m 0,0 v -14.555 c 0,-0.304 0.246,-0.549 0.549,-0.549 h 28.286 c 0.304,0 0.549,0.245 0.549,0.549 V 0 Z"
             style="fill:#b6792f;fill-opacity:1;fill-rule:nonzero;stroke:none"
             id="path388"
             inkscape:connector-curvature="0" /></g><g
           id="g390"><g
             id="g392" /><g
             id="g404"><g
               clip-path="url(#clipPath396)"
               id="g402"
               style="opacity:0.5"><g
                 transform="translate(404.6796,805.1503)"
                 id="g400"><path
                   d="m 0,0 c 3.38,2.303 7.461,3.98 12.084,5.139 h -58.15 L -44.485,0 Z"
                   style="fill:#a7a9ac;fill-opacity:1;fill-rule:nonzero;stroke:none"
                   id="path398"
                   inkscape:connector-curvature="0" /></g></g></g></g><g
           id="g406"
           transform="translate(417.3461,810.2895)"><path
             d="m 0,0 10.887,-17.228 c 0.658,-1.041 2.159,-0.608 1.863,0.538 L 8.446,0 Z"
             style="fill:#b6792f;fill-opacity:1;fill-rule:nonzero;stroke:none"
             id="path408"
             inkscape:connector-curvature="0" /></g><g
           id="g410"
           transform="translate(354.6117,736.3851)"><path
             d="m 0,0 h 48.529 l 1.405,21.94 C 50.34,28.283 45.305,33.651 38.949,33.651 H 9.58 c -6.356,0 -11.391,-5.368 -10.985,-11.711 z"
             style="fill:#f1c333;fill-opacity:1;fill-rule:nonzero;stroke:none"
             id="path412"
             inkscape:connector-curvature="0" /></g><g
           id="g414"
           transform="translate(335.1975,582.1246)"><path
             d="m 0,0 c 0,-18.175 87.358,-18.175 87.357,0 l 3.396,149.79 c 0.265,11.675 -8.265,21.296 -18.879,21.296 h -56.39 c -10.615,0 -19.145,-9.621 -18.88,-21.296 z"
             style="fill:#f2b137;fill-opacity:1;fill-rule:nonzero;stroke:none"
             id="path416"
             inkscape:connector-curvature="0" /></g><g
           id="g418"
           transform="translate(346.8776,594.9271)"><path
             d="m 0,0 c 0,-13.315 63.997,-13.315 63.997,0 l 2.488,109.735 c 0.194,8.552 -6.055,15.601 -13.831,15.601 H 11.343 c -7.776,0 -14.025,-7.049 -13.831,-15.601 z"
             style="fill:#f3f3f3;fill-opacity:1;fill-rule:nonzero;stroke:none"
             id="path420"
             inkscape:connector-curvature="0" /></g><g
           id="g422"
           transform="translate(378.8759,587.0957)"><path
             d="m 0,0 c 8.075,0 15.884,0.881 21.423,2.418 5.273,1.463 8.421,3.487 8.421,5.414 l 2.489,109.783 c 0.085,3.781 -1.3,7.418 -3.8,9.975 -2.158,2.207 -4.956,3.423 -7.877,3.423 h -41.311 c -2.922,0 -5.72,-1.216 -7.878,-3.423 -2.5,-2.557 -3.885,-6.194 -3.8,-9.975 L -29.845,7.88 C -29.844,4.049 -17.852,0 0,0"
             style="fill:#f1c333;fill-opacity:1;fill-rule:nonzero;stroke:none"
             id="path424"
             inkscape:connector-curvature="0" /></g><g
           id="g426"
           transform="translate(807.0292,648.7147)"><path
             d="m 0,0 c 7.298,0 14.24,-3.151 19.045,-8.643 l 10.18,-11.637 h 5.79 l -14,16.004 C 16.209,1.217 9.267,4.368 1.969,4.368 h -33.993 c -2.438,0 -4.411,-1.946 -4.478,-4.368 z"
             style="fill:#ce324a;fill-opacity:1;fill-rule:nonzero;stroke:none"
             id="path428"
             inkscape:connector-curvature="0" /></g><g
           id="g430"
           transform="translate(824.8247,634.4815)"><path
             d="M 0,0 5.289,-6.046 Z"
             style="fill:#ce324a;fill-opacity:1;fill-rule:nonzero;stroke:none"
             id="path432"
             inkscape:connector-curvature="0" /></g><g
           id="g434"
           transform="translate(855.623,615.6396)"><path
             d="m 0,0 v 10.546 c 0,1.242 -1.007,2.25 -2.25,2.25 h -110.347 c -1.243,0 -2.25,-1.008 -2.25,-2.25 V 0 c 0,-1.243 1.007,-2.25 2.25,-2.25 H -2.25 C -1.007,-2.25 0,-1.243 0,0"
             style="fill:#ce324a;fill-opacity:1;fill-rule:nonzero;stroke:none"
             id="path436"
             inkscape:connector-curvature="0" /></g><g
           id="g438"
           transform="translate(775.0049,644.1035)"><path
             d="m 0,0 h 33.993 c 4.709,0 9.187,-2.033 12.288,-5.576 l 8.828,-10.092 h 6.14 L 51.07,-4.032 C 46.265,1.461 39.322,4.611 32.024,4.611 H -4.477 C -4.478,4.57 -4.49,4.531 -4.49,4.49 -4.49,2.01 -2.479,0 0,0"
             style="fill:#b52c47;fill-opacity:1;fill-rule:nonzero;stroke:none"
             id="path440"
             inkscape:connector-curvature="0" /></g><g
           id="g442"
           transform="translate(850.2317,578.4089)"><path
             d="m 0,0 -3.848,34.981 h -96.368 L -104.065,0 Z"
             style="fill:#e1d21f;fill-opacity:1;fill-rule:nonzero;stroke:none"
             id="path444"
             inkscape:connector-curvature="0" /></g><g
           id="g446"><g
             id="g448" /><g
             id="g460"><g
               clip-path="url(#clipPath452)"
               id="g458"
               style="opacity:0.25"><g
                 transform="translate(842.0441,628.4352)"
                 id="g456"><path
                   d="M 0,0 -14.234,2.634 -11.93,0 Z"
                   style="fill:#242d44;fill-opacity:1;fill-rule:nonzero;stroke:none"
                   id="path454"
                   inkscape:connector-curvature="0" /></g></g></g></g><g
           id="g462"
           transform="translate(827.4263,578.4089)"><path
             d="M 0,0 4.073,30.05 8.146,0 Z"
             style="fill:#cebd2c;fill-opacity:1;fill-rule:nonzero;stroke:none"
             id="path464"
             inkscape:connector-curvature="0" /></g><g
           id="g466"
           transform="translate(804.1132,578.4089)"><path
             d="M 0,0 4.073,30.05 8.146,0 Z"
             style="fill:#cebd2c;fill-opacity:1;fill-rule:nonzero;stroke:none"
             id="path468"
             inkscape:connector-curvature="0" /></g><g
           id="g470"
           transform="translate(780.8002,578.4089)"><path
             d="M 0,0 4.073,30.05 8.146,0 Z"
             style="fill:#cebd2c;fill-opacity:1;fill-rule:nonzero;stroke:none"
             id="path472"
             inkscape:connector-curvature="0" /></g><g
           id="g474"
           transform="translate(757.487,578.4089)"><path
             d="M 0,0 4.073,30.05 8.146,0 Z"
             style="fill:#cebd2c;fill-opacity:1;fill-rule:nonzero;stroke:none"
             id="path476"
             inkscape:connector-curvature="0" /></g><g
           id="g478"
           transform="translate(743.6622,613.3896)"><path
             d="m 0,0 h 109.075 c 1.594,0 2.886,1.292 2.886,2.886 V 3.014 H -2.886 V 2.886 C -2.886,1.292 -1.594,0 0,0"
             style="fill:#b52c47;fill-opacity:1;fill-rule:nonzero;stroke:none"
             id="path480"
             inkscape:connector-curvature="0" /></g><path
           d="M 598.364,602.527 H 487.495 v -37.268 h 110.869 z"
           style="fill:#e1d21f;fill-opacity:1;fill-rule:nonzero;stroke:none"
           id="path482"
           inkscape:connector-curvature="0" /><g
           id="g484"
           transform="translate(492.0364,583.8926)"><path
             d="M 0,0 C 0,2.508 -2.033,4.542 -4.542,4.542 V -4.542 C -2.033,-4.542 0,-2.508 0,0"
             style="fill:#cebd2c;fill-opacity:1;fill-rule:nonzero;stroke:none"
             id="path486"
             inkscape:connector-curvature="0" /></g><g
           id="g488"
           transform="translate(509.6687,577.7481)"><path
             d="m 0,0 c -2.508,0 -4.542,-2.034 -4.542,-4.542 0,-2.508 2.034,-4.541 4.542,-4.541 2.508,0 4.542,2.033 4.542,4.541 C 4.542,-2.034 2.508,0 0,0"
             style="fill:#cebd2c;fill-opacity:1;fill-rule:nonzero;stroke:none"
             id="path490"
             inkscape:connector-curvature="0" /></g><g
           id="g492"
           transform="translate(522.7594,592.9759)"><path
             d="m 0,0 c -2.508,0 -4.542,-2.033 -4.542,-4.542 0,-2.508 2.034,-4.541 4.542,-4.541 2.508,0 4.542,2.033 4.542,4.541 C 4.542,-2.033 2.508,0 0,0"
             style="fill:#cebd2c;fill-opacity:1;fill-rule:nonzero;stroke:none"
             id="path494"
             inkscape:connector-curvature="0" /></g><g
           id="g496"
           transform="translate(542.9295,579.2702)"><path
             d="m 0,0 c -2.508,0 -4.542,-2.033 -4.542,-4.542 0,-2.508 2.034,-4.541 4.542,-4.541 2.508,0 4.542,2.033 4.542,4.541 C 4.542,-2.033 2.508,0 0,0"
             style="fill:#cebd2c;fill-opacity:1;fill-rule:nonzero;stroke:none"
             id="path498"
             inkscape:connector-curvature="0" /></g><g
           id="g500"
           transform="translate(564.0523,581.4499)"><path
             d="M 0,0 C 2.508,0 4.542,2.033 4.542,4.542 4.542,7.05 2.508,9.083 0,9.083 -2.508,9.083 -4.542,7.05 -4.542,4.542 -4.542,2.033 -2.508,0 0,0"
             style="fill:#cebd2c;fill-opacity:1;fill-rule:nonzero;stroke:none"
             id="path502"
             inkscape:connector-curvature="0" /></g><g
           id="g504"
           transform="translate(566.993,569.8001)"><path
             d="M 0,0 C -2.508,0 -4.542,-2.033 -4.542,-4.542 H 4.542 C 4.542,-2.033 2.508,0 0,0"
             style="fill:#cebd2c;fill-opacity:1;fill-rule:nonzero;stroke:none"
             id="path506"
             inkscape:connector-curvature="0" /></g><g
           id="g508"
           transform="translate(593.8226,577.7481)"><path
             d="M 0,0 C 0,-2.508 2.033,-4.542 4.542,-4.542 V 4.542 C 2.033,4.542 0,2.508 0,0"
             style="fill:#cebd2c;fill-opacity:1;fill-rule:nonzero;stroke:none"
             id="path510"
             inkscape:connector-curvature="0" /></g><g
           id="g512"
           transform="translate(580.4649,590.5331)"><path
             d="M 0,0 C 0,-2.508 2.033,-4.542 4.542,-4.542 7.05,-4.542 9.083,-2.508 9.083,0 9.083,2.508 7.05,4.542 4.542,4.542 2.033,4.542 0,2.508 0,0"
             style="fill:#cebd2c;fill-opacity:1;fill-rule:nonzero;stroke:none"
             id="path514"
             inkscape:connector-curvature="0" /></g><g
           id="g516"
           transform="translate(600.3532,600.976)"><path
             d="m 0,0 v 10.546 c 0,1.242 -1.007,2.25 -2.25,2.25 h -110.347 c -1.243,0 -2.25,-1.008 -2.25,-2.25 V 0 c 0,-1.243 1.007,-2.25 2.25,-2.25 H -2.25 C -1.007,-2.25 0,-1.243 0,0"
             style="fill:#ef4444;fill-opacity:1;fill-rule:nonzero;stroke:none"
             id="path518"
             inkscape:connector-curvature="0" /></g><g
           id="g520"
           transform="translate(600.3532,602.514)"><path
             d="m 0,0 h -114.847 v -1.254 c 0,-1.4 1.134,-2.534 2.534,-2.534 H -2.534 c 1.4,0 2.534,1.134 2.534,2.534 z"
             style="fill:#dd3e3f;fill-opacity:1;fill-rule:nonzero;stroke:none"
             id="path522"
             inkscape:connector-curvature="0" /></g><g
           id="g524"
           transform="translate(1147.5295,568.9196)"><path
             d="m 0,0 h -83.289 c -2.14,0 -3.875,1.735 -3.875,3.875 v 17.667 c 0,2.14 1.735,3.875 3.875,3.875 H 0 c 2.14,0 3.875,-1.735 3.875,-3.875 V 3.875 C 3.875,1.735 2.14,0 0,0"
             style="fill:#f2a74a;fill-opacity:1;fill-rule:nonzero;stroke:none"
             id="path526"
             inkscape:connector-curvature="0" /></g><g
           id="g528"
           transform="translate(1146.0323,594.3365)"><path
             d="m 0,0 h -80.295 c -2.966,0 -5.372,-2.405 -5.372,-5.372 V -9.473 H 5.372 v 4.101 C 5.372,-2.405 2.967,0 0,0"
             style="fill:#efbf4b;fill-opacity:1;fill-rule:nonzero;stroke:none"
             id="path530"
             inkscape:connector-curvature="0" /></g><g
           id="g1050"
           transform="translate(346.8589,498.25)"><path
             d="m 0,0 h 11.559 v -41.248 h 20.246 v -9.67 H 0 Z"
             style="fill:#fbb03f;fill-opacity:1;fill-rule:nonzero;stroke:none"
             id="path1052"
             inkscape:connector-curvature="0" /></g><g
           id="g1054"
           transform="translate(415.7529,468.8623)"><path
             d="M 0,0 H -18.736 V -12.087 H 2.19 V -21.53 H -30.294 V 29.388 H 1.133 V 19.944 H -18.736 V 9.368 H 0 Z"
             style="fill:#fbb03f;fill-opacity:1;fill-rule:nonzero;stroke:none"
             id="path1056"
             inkscape:connector-curvature="0" /></g><g
           id="g1058"
           transform="translate(435.9951,488.5801)"><path
             d="M 0,0 H -13.674 V 9.67 H 25.459 V 0 h -13.9 V -41.248 H 0 Z"
             style="fill:#fbb03f;fill-opacity:1;fill-rule:nonzero;stroke:none"
             id="path1060"
             inkscape:connector-curvature="0" /></g><g
           id="g1062"
           transform="translate(481.8467,499.0811)"><path
             d="m 0,0 c -2.342,-7.403 -5.666,-14.807 -9.065,-20.473 l -6.951,-0.604 c 2.266,6.421 4.231,13.749 5.213,20.397 z"
             style="fill:#fbb03f;fill-opacity:1;fill-rule:nonzero;stroke:none"
             id="path1064"
             inkscape:connector-curvature="0" /></g><g
           id="g1066"
           transform="translate(487.5864,459.1924)"><path
             d="m 0,0 c 3.097,-1.586 7.857,-3.173 12.767,-3.173 5.289,0 8.084,2.192 8.084,5.516 0,3.173 -2.418,4.985 -8.537,7.177 -8.461,2.946 -13.976,7.629 -13.976,15.033 0,8.688 7.252,15.336 19.264,15.336 5.742,0 9.972,-1.209 12.994,-2.569 l -2.568,-9.292 c -2.04,0.982 -5.666,2.417 -10.653,2.417 -4.985,0 -7.403,-2.266 -7.403,-4.91 0,-3.249 2.871,-4.683 9.444,-7.177 8.989,-3.324 13.22,-8.007 13.22,-15.184 0,-8.537 -6.573,-15.79 -20.549,-15.79 -5.816,0 -11.558,1.512 -14.429,3.097 z"
             style="fill:#fbb03f;fill-opacity:1;fill-rule:nonzero;stroke:none"
             id="path1068"
             inkscape:connector-curvature="0" /></g><g
           id="g1070"
           transform="translate(585.791,449.6738)"><path
             d="m 0,0 c -3.551,-1.209 -10.274,-2.871 -16.998,-2.871 -9.292,0 -16.016,2.343 -20.7,6.875 -4.683,4.382 -7.252,11.03 -7.177,18.509 0.076,16.923 12.39,26.592 29.086,26.592 6.572,0 11.634,-1.284 14.127,-2.493 L -4.08,37.396 c -2.795,1.208 -6.27,2.19 -11.86,2.19 -9.595,0 -16.847,-5.439 -16.847,-16.469 0,-10.501 6.573,-16.695 16.016,-16.695 2.644,0 4.759,0.302 5.666,0.755 v 10.652 h -7.857 v 8.99 l 18.962,0 z"
             style="fill:#fbb03f;fill-opacity:1;fill-rule:nonzero;stroke:none"
             id="path1072"
             inkscape:connector-curvature="0" /></g><g
           id="g1074"
           transform="translate(625.0703,468.8623)"><path
             d="M 0,0 H -18.736 V -12.087 H 2.19 V -21.53 H -30.294 V 29.388 H 1.133 V 19.944 H -18.736 V 9.368 L 0,9.368 Z"
             style="fill:#fbb03f;fill-opacity:1;fill-rule:nonzero;stroke:none"
             id="path1076"
             inkscape:connector-curvature="0" /></g><g
           id="g1078"
           transform="translate(645.312,488.5801)"><path
             d="M 0,0 H -13.674 V 9.67 H 25.459 V 0 h -13.9 V -41.248 H 0 Z"
             style="fill:#fbb03f;fill-opacity:1;fill-rule:nonzero;stroke:none"
             id="path1080"
             inkscape:connector-curvature="0" /></g><g
           id="g1082"
           transform="translate(729.54,448.7676)"><path
             d="m 0,0 c -2.115,-1.058 -6.875,-2.191 -13.069,-2.191 -17.603,0 -26.668,10.955 -26.668,25.46 0,17.375 12.389,27.044 27.8,27.044 5.969,0 10.501,-1.209 12.541,-2.266 l -2.341,-9.141 c -2.342,0.983 -5.591,1.889 -9.67,1.889 -9.142,0 -16.242,-5.515 -16.242,-16.847 0,-10.199 6.043,-16.62 16.317,-16.62 3.476,0 7.328,0.755 9.595,1.662 z"
             style="fill:#fbb03f;fill-opacity:1;fill-rule:nonzero;stroke:none"
             id="path1084"
             inkscape:connector-curvature="0" /></g><g
           id="g1086"
           transform="translate(737.0898,498.25)"><path
             d="m 0,0 h 11.559 v -41.248 h 20.246 v -9.67 H 0 Z"
             style="fill:#fbb03f;fill-opacity:1;fill-rule:nonzero;stroke:none"
             id="path1088"
             inkscape:connector-curvature="0" /></g><g
           id="g1090"
           transform="translate(805.9834,468.8623)"><path
             d="M 0,0 H -18.735 V -12.087 H 2.19 V -21.53 H -30.294 V 29.388 H 1.133 V 19.944 H -18.735 V 9.368 L 0,9.368 Z"
             style="fill:#fbb03f;fill-opacity:1;fill-rule:nonzero;stroke:none"
             id="path1092"
             inkscape:connector-curvature="0" /></g><g
           id="g1094"
           transform="translate(840.8076,469.0137)"><path
             d="m 0,0 -3.173,10.804 c -0.907,3.021 -1.813,6.799 -2.569,9.82 H -5.893 C -6.648,17.603 -7.404,13.75 -8.235,10.804 L -11.257,0 Z m -12.919,-8.612 -3.626,-13.07 h -11.936 l 15.562,50.918 H 2.19 L 17.979,-21.682 H 5.59 l -3.929,13.07 z"
             style="fill:#fbb03f;fill-opacity:1;fill-rule:nonzero;stroke:none"
             id="path1096"
             inkscape:connector-curvature="0" /></g><g
           id="g1098"
           transform="translate(865.5811,447.332)"><path
             d="m 0,0 v 50.918 h 13.447 l 10.576,-18.66 c 3.022,-5.363 6.044,-11.709 8.311,-17.451 h 0.227 C 31.805,21.53 31.578,28.405 31.578,36.035 V 50.918 H 42.154 L 42.154,0 H 30.067 L 19.188,19.642 c -3.021,5.439 -6.345,12.012 -8.838,17.98 l -0.227,-0.075 c 0.302,-6.724 0.453,-13.901 0.453,-22.211 L 10.576,0 Z"
             style="fill:#fbb03f;fill-opacity:1;fill-rule:nonzero;stroke:none"
             id="path1100"
             inkscape:connector-curvature="0" /></g><path
           d="m 929.262,447.332 h -11.559 v 50.918 h 11.559 z"
           style="fill:#fbb03f;fill-opacity:1;fill-rule:nonzero;stroke:none"
           id="path1102"
           inkscape:connector-curvature="0" /><g
           id="g1104"
           transform="translate(939.2305,447.332)"><path
             d="m 0,0 v 50.918 h 13.447 l 10.576,-18.66 c 3.022,-5.363 6.044,-11.709 8.311,-17.451 h 0.227 C 31.805,21.53 31.578,28.405 31.578,36.035 V 50.918 H 42.154 L 42.154,0 H 30.067 L 19.188,19.642 c -3.021,5.439 -6.345,12.012 -8.838,17.98 l -0.227,-0.075 c 0.302,-6.724 0.453,-13.901 0.453,-22.211 L 10.576,0 Z"
             style="fill:#fbb03f;fill-opacity:1;fill-rule:nonzero;stroke:none"
             id="path1106"
             inkscape:connector-curvature="0" /></g><g
           id="g1108"
           transform="translate(1033.8848,449.6738)"><path
             d="m 0,0 c -3.551,-1.209 -10.274,-2.871 -16.998,-2.871 -9.292,0 -16.016,2.343 -20.699,6.875 -4.685,4.382 -7.253,11.03 -7.177,18.509 0.075,16.923 12.39,26.592 29.085,26.592 6.572,0 11.634,-1.284 14.127,-2.493 l -2.417,-9.216 c -2.796,1.208 -6.271,2.19 -11.861,2.19 -9.594,0 -16.847,-5.439 -16.847,-16.469 0,-10.501 6.572,-16.695 16.016,-16.695 2.644,0 4.759,0.302 5.666,0.755 v 10.652 h -7.857 v 8.99 l 18.962,0 z"
             style="fill:#fbb03f;fill-opacity:1;fill-rule:nonzero;stroke:none"
             id="path1110"
             inkscape:connector-curvature="0" /></g><g
           id="g1112"
           transform="translate(1043.7012,464.0273)"><path
             d="M 0,0 -1.738,34.223 H 10.274 L 8.612,0 Z m -2.493,-10.651 c 0,4.004 2.795,6.874 6.799,6.874 4.004,0 6.648,-2.87 6.723,-6.874 0,-3.929 -2.643,-6.875 -6.723,-6.875 -4.079,0 -6.799,2.946 -6.799,6.875"
             style="fill:#fbb03f;fill-opacity:1;fill-rule:nonzero;stroke:none"
             id="path1114"
             inkscape:connector-curvature="0" /></g></g></g></g></svg>