<?xml version="1.0" encoding="UTF-8" standalone="no"?>
<!-- Created with Inkscape (http://www.inkscape.org/) -->

<svg
   xmlns:dc="http://purl.org/dc/elements/1.1/"
   xmlns:cc="http://creativecommons.org/ns#"
   xmlns:rdf="http://www.w3.org/1999/02/22-rdf-syntax-ns#"
   xmlns:svg="http://www.w3.org/2000/svg"
   xmlns="http://www.w3.org/2000/svg"
   xmlns:sodipodi="http://sodipodi.sourceforge.net/DTD/sodipodi-0.dtd"
   xmlns:inkscape="http://www.inkscape.org/namespaces/inkscape"
   version="1.1"
   id="svg2"
   xml:space="preserve"
   width="1866.6667"
   height="1306.6667"
   viewBox="0 0 1866.6667 1306.6667"
   sodipodi:docname="squeege.svg"
   inkscape:version="0.92.3 (2405546, 2018-03-11)"><metadata
     id="metadata8"><rdf:RDF><cc:Work
         rdf:about=""><dc:format>image/svg+xml</dc:format><dc:type
           rdf:resource="http://purl.org/dc/dcmitype/StillImage" /><dc:title></dc:title></cc:Work></rdf:RDF></metadata><defs
     id="defs6"><clipPath
       clipPathUnits="userSpaceOnUse"
       id="clipPath28"><path
         d="M 0,980 H 1400 V 0 H 0 Z"
         id="path26"
         inkscape:connector-curvature="0" /></clipPath><clipPath
       clipPathUnits="userSpaceOnUse"
       id="clipPath54"><path
         d="m 282.136,597.258 h 4.972 V 382.742 h -4.972 z"
         id="path52"
         inkscape:connector-curvature="0" /></clipPath><clipPath
       clipPathUnits="userSpaceOnUse"
       id="clipPath76"><path
         d="m 257.684,451.714 h 10.319 v -6.75 h -10.319 z"
         id="path74"
         inkscape:connector-curvature="0" /></clipPath></defs><sodipodi:namedview
     pagecolor="#ffffff"
     bordercolor="#666666"
     borderopacity="1"
     objecttolerance="10"
     gridtolerance="10"
     guidetolerance="10"
     inkscape:pageopacity="0"
     inkscape:pageshadow="2"
     inkscape:window-width="640"
     inkscape:window-height="480"
     id="namedview4"
     showgrid="false"
     inkscape:zoom="0.18061223"
     inkscape:cx="933.33337"
     inkscape:cy="653.33337"
     inkscape:window-x="67"
     inkscape:window-y="27"
     inkscape:window-maximized="0"
     inkscape:current-layer="g10" /><g
     id="g10"
     inkscape:groupmode="layer"
     inkscape:label="AUG_WET_FLOOR_02_EEZY"
     transform="matrix(1.3333333,0,0,-1.3333333,0,1306.6667)"><path
       d="M 0,0 H 1400 V 980 H 0 Z"
       style="fill:#ffffff;fill-opacity:1;fill-rule:nonzero;stroke:none"
       id="path12"
       inkscape:connector-curvature="0" /><g
       id="g14"
       transform="translate(619.5492,598.4188)"><path
         d="m 0,0 h 27.87 v -192.531 h 92.262 v -23.385 H 0 Z"
         style="fill:#d1d1d2;fill-opacity:1;fill-rule:nonzero;stroke:none"
         id="path16"
         inkscape:connector-curvature="0" /></g><g
       id="g18"
       transform="translate(882.549,483.7336)"><path
         d="M 0,0 H -83.932 V -77.846 H 9.611 v -23.385 H -111.802 V 114.685 H 4.805 V 91.3 H -83.932 V 23.065 l 83.932,0 z"
         style="fill:#d1d1d2;fill-opacity:1;fill-rule:nonzero;stroke:none"
         id="path20"
         inkscape:connector-curvature="0" /></g><g
       id="g22"><g
         id="g24"
         clip-path="url(#clipPath28)"><g
           id="g30"
           transform="translate(1034.0693,472.2006)"><path
             d="m 0,0 -21.144,62.148 c -4.805,14.096 -8.009,26.91 -11.212,39.403 h -0.641 C -36.201,88.737 -39.724,75.603 -43.889,62.469 L -65.032,0 Z m -70.799,-21.784 -22.423,-67.914 h -28.832 l 73.36,215.916 h 33.637 L 58.623,-89.698 H 28.831 L 5.766,-21.784 Z"
             style="fill:#d1d1d2;fill-opacity:1;fill-rule:nonzero;stroke:none"
             id="path32"
             inkscape:connector-curvature="0" /></g><g
           id="g34"
           transform="translate(1124.4028,382.5026)"><path
             d="M 0,0 V 215.916 H 30.432 L 99.628,106.677 C 115.646,81.369 128.139,58.624 138.391,36.52 l 0.64,0.32 c -2.562,28.832 -3.203,55.1 -3.203,88.738 v 90.338 h 26.269 V 0 H 133.906 L 65.351,109.56 c -15.056,24.026 -29.472,48.693 -40.364,72.079 l -0.961,-0.321 c 1.601,-27.229 2.242,-53.177 2.242,-89.057 L 26.268,0 Z"
             style="fill:#d1d1d2;fill-opacity:1;fill-rule:nonzero;stroke:none"
             id="path36"
             inkscape:connector-curvature="0" /></g><g
           id="g38"
           transform="translate(583.3124,597.2582)"><path
             d="M 0,0 H -283.865 V -214.516 H 0 c -39.455,-79.209 -121.244,-133.626 -215.745,-133.626 -133.036,0 -240.884,107.847 -240.884,240.884 0,133.037 107.848,240.884 240.884,240.884 C -121.244,133.626 -39.455,79.208 0,0"
             style="fill:#d1d1d2;fill-opacity:1;fill-rule:nonzero;stroke:none"
             id="path40"
             inkscape:connector-curvature="0" /></g><g
           id="g42"
           transform="translate(257.6835,579.9673)"><path
             d="m 0,0 v -179.935 c 0,-9.549 7.741,-17.291 17.291,-17.291 H 29.425 V 17.291 H 17.291 C 7.741,17.291 0,9.55 0,0"
             style="fill:#3a99d5;fill-opacity:1;fill-rule:nonzero;stroke:none"
             id="path44"
             inkscape:connector-curvature="0" /></g><path
           d="m 287.108,382.742 h 12.339 v 214.517 h -12.339 z"
           style="fill:#323c59;fill-opacity:1;fill-rule:nonzero;stroke:none"
           id="path46"
           inkscape:connector-curvature="0" /><g
           id="g48"><g
             id="g50" /><g
             id="g60"><g
               clip-path="url(#clipPath54)"
               id="g58"
               style="opacity:0.39999402"><path
                 d="m 282.136,382.742 h 4.972 v 214.517 h -4.972 z"
                 style="fill:#323c59;fill-opacity:1;fill-rule:nonzero;stroke:none"
                 id="path56"
                 inkscape:connector-curvature="0" /></g></g></g><g
           id="g62"
           transform="translate(271.2723,490)"><path
             d="m 0,0 v -35.017 c 0,-1.805 -1.464,-3.269 -3.269,-3.269 h -15.036 c -1.165,0 -2.242,0.62 -2.827,1.628 l -14.817,25.517 c -0.585,1.007 -1.662,1.628 -2.827,1.628 h -112.821 c -3.411,0 -6.175,2.764 -6.175,6.174 V 0 3.338 c 0,3.411 2.764,6.175 6.175,6.175 h 112.821 c 1.165,0 2.242,0.62 2.827,1.628 l 14.817,25.517 c 0.585,1.008 1.662,1.628 2.827,1.628 H -3.269 C -1.464,38.286 0,36.822 0,35.016 Z"
             style="fill:#4ebbdc;fill-opacity:1;fill-rule:nonzero;stroke:none"
             id="path64"
             inkscape:connector-curvature="0" /></g><g
           id="g66"
           transform="translate(252.9673,528.2858)"><path
             d="m 0,0 h 15.036 c 1.805,0 3.269,-1.464 3.269,-3.269 V -38.286 -67.712 H 3.797 c -1.165,0 -2.242,0.62 -2.827,1.628 l -14.816,25.516 c -0.586,1.008 -1.663,1.628 -2.828,1.628 h -122.793 v 0.654 3.339 c 0,3.41 2.764,6.175 6.175,6.175 h 112.821 c 1.165,0 2.242,0.62 2.828,1.627 L -2.827,-1.628 C -2.242,-0.62 -1.165,0 0,0"
             style="fill:#54c3f0;fill-opacity:1;fill-rule:nonzero;stroke:none"
             id="path68"
             inkscape:connector-curvature="0" /></g><g
           id="g70"><g
             id="g72" /><g
             id="g84"><g
               clip-path="url(#clipPath76)"
               id="g82"
               style="opacity:0.39999402"><g
                 transform="translate(257.6835,451.7142)"
                 id="g80"><path
                   d="M 0,0 H 10.319 L 0,-6.75 Z"
                   style="fill:#323c59;fill-opacity:1;fill-rule:nonzero;stroke:none"
                   id="path78"
                   inkscape:connector-curvature="0" /></g></g></g></g><g
           id="g86"
           transform="translate(242.6496,488.3938)"><path
             d="m 0,0 v -0.504 c 0,-3.603 2.948,-6.551 6.551,-6.551 h 0.504 c 3.603,0 6.551,2.948 6.551,6.551 V 0 c 0,3.603 -2.948,6.551 -6.551,6.551 H 6.551 C 2.948,6.551 0,3.603 0,0"
             style="fill:#4ebbdc;fill-opacity:1;fill-rule:nonzero;stroke:none"
             id="path88"
             inkscape:connector-curvature="0" /></g><g
           id="g90"
           transform="translate(256.2553,490)"><path
             d="m 0,0 c 0,3.5 -2.68,6.404 -6.089,6.764 0.235,0.025 0.473,0.039 0.714,0.039 3.742,0 6.803,-3.061 6.803,-6.803 0,-3.742 -3.061,-6.803 -6.803,-6.803 -0.241,0 -0.479,0.014 -0.714,0.039 C -2.68,-6.404 0,-3.5 0,0"
             style="fill:#f7f6e9;fill-opacity:1;fill-rule:nonzero;stroke:none"
             id="path92"
             inkscape:connector-curvature="0" /></g><g
           id="g94"
           transform="translate(244.0778,490)"><path
             d="M 0,0 C 0,3.5 2.68,6.404 6.089,6.764 9.498,6.404 12.178,3.5 12.178,0 12.178,-3.5 9.498,-6.404 6.089,-6.764 2.68,-6.404 0,-3.5 0,0"
             style="fill:#f2eabc;fill-opacity:1;fill-rule:nonzero;stroke:none"
             id="path96"
             inkscape:connector-curvature="0" /></g><g
           id="g98"
           transform="translate(245.506,490)"><path
             d="M 0,0 C 0,-3.5 2.68,-6.404 6.089,-6.764 5.854,-6.789 5.616,-6.803 5.375,-6.803 c -3.742,0 -6.803,3.061 -6.803,6.803 0,3.742 3.061,6.803 6.803,6.803 0.241,0 0.479,-0.014 0.714,-0.039 C 2.68,6.404 0,3.5 0,0"
             style="fill:#dcd2a9;fill-opacity:1;fill-rule:nonzero;stroke:none"
             id="path100"
             inkscape:connector-curvature="0" /></g><path
           d="m 250.495,484.463 h 1.1 v 11.285 h -1.1 z"
           style="fill:#dcd2a9;fill-opacity:1;fill-rule:nonzero;stroke:none"
           id="path102"
           inkscape:connector-curvature="0" /><path
           d="m 251.187,484.463 h 0.408 v 11.285 h -0.408 z"
           style="fill:#c7bd95;fill-opacity:1;fill-rule:nonzero;stroke:none"
           id="path104"
           inkscape:connector-curvature="0" /><g
           id="g106"
           transform="translate(265.3665,463.2933)"><path
             d="m 0,0 v 53.624 c 0,0.701 0.568,1.27 1.269,1.27 h 0.098 c 0.701,0 1.27,-0.569 1.27,-1.27 V 0 c 0,-0.701 -0.569,-1.269 -1.27,-1.269 H 1.269 C 0.568,-1.269 0,-0.701 0,0"
             style="fill:#6eceed;fill-opacity:1;fill-rule:nonzero;stroke:none"
             id="path108"
             inkscape:connector-curvature="0" /></g><g
           id="g110"
           transform="translate(447.193,556.3237)"><path
             d="M 0,0 -1.502,3.116 -3.005,0 -6.121,-1.502 -3.005,-3.005 -1.502,-6.121 0,-3.005 3.116,-1.502 Z"
             style="fill:#6eceed;fill-opacity:1;fill-rule:nonzero;stroke:none"
             id="path112"
             inkscape:connector-curvature="0" /></g><g
           id="g114"
           transform="translate(379.3366,463.5262)"><path
             d="M 0,0 -1.502,3.116 -3.005,0 -6.121,-1.502 -3.005,-3.005 -1.502,-6.121 0,-3.005 3.116,-1.502 Z"
             style="fill:#3a99d5;fill-opacity:1;fill-rule:nonzero;stroke:none"
             id="path116"
             inkscape:connector-curvature="0" /></g><g
           id="g118"
           transform="translate(758.1588,488.9099)"><path
             d="M 0,0 -1.502,3.116 -3.005,0 -6.121,-1.502 -3.005,-3.005 -1.502,-6.121 0,-3.005 3.116,-1.502 Z"
             style="fill:#3a99d5;fill-opacity:1;fill-rule:nonzero;stroke:none"
             id="path120"
             inkscape:connector-curvature="0" /></g><g
           id="g122"
           transform="translate(1122.7894,493.3004)"><path
             d="M 0,0 -3.3,6.846 -6.601,0 -13.447,-3.3 -6.601,-6.601 -3.3,-13.447 0,-6.601 6.846,-3.3 Z"
             style="fill:#3a99d5;fill-opacity:1;fill-rule:nonzero;stroke:none"
             id="path124"
             inkscape:connector-curvature="0" /></g><g
           id="g126"
           transform="translate(459.1417,493.5284)"><path
             d="M 0,0 -1.502,3.116 -3.004,0 -6.121,-1.502 -3.004,-3.005 -1.502,-6.121 0,-3.005 3.116,-1.502 Z"
             style="fill:#4ebbdc;fill-opacity:1;fill-rule:nonzero;stroke:none"
             id="path128"
             inkscape:connector-curvature="0" /></g><g
           id="g130"
           transform="translate(1074.0045,524.4784)"><path
             d="M 0,0 -1.502,3.116 -3.005,0 -6.121,-1.502 -3.005,-3.005 -1.502,-6.121 0,-3.005 3.116,-1.502 Z"
             style="fill:#4ebbdc;fill-opacity:1;fill-rule:nonzero;stroke:none"
             id="path132"
             inkscape:connector-curvature="0" /></g><g
           id="g134"
           transform="translate(576.2146,440.3697)"><path
             d="M 0,0 -1.502,3.116 -3.005,0 -6.121,-1.502 -3.005,-3.004 -1.502,-6.121 0,-3.004 3.116,-1.502 Z"
             style="fill:#6eceed;fill-opacity:1;fill-rule:nonzero;stroke:none"
             id="path136"
             inkscape:connector-curvature="0" /></g><g
           id="g138"
           transform="translate(1003.8561,435.7512)"><path
             d="M 0,0 -1.502,3.116 -3.004,0 -6.121,-1.502 -3.004,-3.004 -1.502,-6.121 0,-3.004 3.116,-1.502 Z"
             style="fill:#6eceed;fill-opacity:1;fill-rule:nonzero;stroke:none"
             id="path140"
             inkscape:connector-curvature="0" /></g><g
           id="g142"
           transform="translate(1232.559,505.5351)"><path
             d="M 0,0 -1.502,3.116 -3.005,0 -6.121,-1.502 -3.005,-3.004 -1.502,-6.121 0,-3.004 3.116,-1.502 Z"
             style="fill:#6eceed;fill-opacity:1;fill-rule:nonzero;stroke:none"
             id="path144"
             inkscape:connector-curvature="0" /></g><g
           id="g146"
           transform="translate(706.1208,468.1447)"><path
             d="M 0,0 -1.502,3.116 -3.005,0 -6.121,-1.502 -3.005,-3.005 -1.502,-6.121 0,-3.005 3.116,-1.502 Z"
             style="fill:#6eceed;fill-opacity:1;fill-rule:nonzero;stroke:none"
             id="path148"
             inkscape:connector-curvature="0" /></g><g
           id="g150"
           transform="translate(898.2804,488.9099)"><path
             d="M 0,0 -1.502,3.116 -3.005,0 -6.121,-1.502 -3.005,-3.005 -1.502,-6.121 0,-3.005 3.116,-1.502 Z"
             style="fill:#6eceed;fill-opacity:1;fill-rule:nonzero;stroke:none"
             id="path152"
             inkscape:connector-curvature="0" /></g><g
           id="g154"
           transform="translate(470.1919,570.4174)"><path
             d="M 0,0 -3.081,6.391 -6.162,0 l -6.39,-3.081 6.39,-3.081 3.081,-6.39 3.081,6.39 6.391,3.081 z"
             style="fill:#54c3f0;fill-opacity:1;fill-rule:nonzero;stroke:none"
             id="path156"
             inkscape:connector-curvature="0" /></g><g
           id="g158"
           transform="translate(1243.6093,465.1048)"><path
             d="M 0,0 -3.081,6.391 -6.162,0 l -6.391,-3.081 6.391,-3.081 3.081,-6.39 3.081,6.39 6.391,3.081 z"
             style="fill:#54c3f0;fill-opacity:1;fill-rule:nonzero;stroke:none"
             id="path160"
             inkscape:connector-curvature="0" /></g><g
           id="g162"
           transform="translate(354.0181,451.4199)"><path
             d="M 0,0 -3.081,6.391 -6.162,0 l -6.39,-3.081 6.39,-3.081 3.081,-6.39 3.081,6.39 6.391,3.081 z"
             style="fill:#6eceed;fill-opacity:1;fill-rule:nonzero;stroke:none"
             id="path164"
             inkscape:connector-curvature="0" /></g><g
           id="g166"
           transform="translate(924.5678,475.2815)"><path
             d="M 0,0 -3.081,6.391 -6.162,0 l -6.39,-3.081 6.39,-3.081 3.081,-6.39 3.081,6.39 6.391,3.081 z"
             style="fill:#6eceed;fill-opacity:1;fill-rule:nonzero;stroke:none"
             id="path168"
             inkscape:connector-curvature="0" /></g><g
           id="g170"
           transform="translate(521.3437,495.107)"><path
             d="M 0,0 -3.081,6.391 -6.162,0 l -6.39,-3.081 6.39,-3.081 3.081,-6.39 3.081,6.39 6.391,3.081 z"
             style="fill:#54c3f0;fill-opacity:1;fill-rule:nonzero;stroke:none"
             id="path172"
             inkscape:connector-curvature="0" /></g><g
           id="g174"
           transform="translate(773.8276,516.5853)"><path
             d="M 0,0 -3.081,6.391 -6.162,0 l -6.39,-3.081 6.39,-3.081 3.081,-6.391 3.081,6.391 6.391,3.081 z"
             style="fill:#54c3f0;fill-opacity:1;fill-rule:nonzero;stroke:none"
             id="path176"
             inkscape:connector-curvature="0" /></g></g></g></g></svg>